<?xml version="1.0" standalone="no"?>
<!DOCTYPE svg PUBLIC "-//W3C//DTD SVG 1.1//EN" "http://www.w3.org/Graphics/SVG/1.1/DTD/svg11.dtd">
<svg width="2000px" height="2000px" version="1.1" xmlns="http://www.w3.org/2000/svg" xmlns:xlink="http://www.w3.org/1999/xlink">
<g id="ideograms">
<path d="M 1800.000,1000.000 A800.000,800.000 0.000 0,1 1475.826,1643.110 L 1505.565,1683.304 A850.000,850.000 0.000 0,0 1850.000,1000.000 Z " style="stroke-width: 2.0; stroke: rgb(0,0,0); fill: rgb(247,42,66); " />
<text x="1783.4" y="1422.3" style="fill: rgb(0,0,0); font-size: 48.0px; text-anchor: start" transform="rotate(26.8,1783.4,1422.3)">1</text>
<line x1="1849.6" y1="1026.1" x2="1853.6" y2="1026.2" style="stroke-width: 2.0; stroke: rgb(0,0,0); stroke-linecap: round;" />
<text x="1865.4" y="1033.1" style="fill: rgb(0,0,0); font-size: 12.0px; text-anchor: start" transform="rotate(1.8,1865.4,1033.1)">1</text>
<line x1="1848.4" y1="1052.1" x2="1852.4" y2="1052.4" style="stroke-width: 2.0; stroke: rgb(0,0,0); stroke-linecap: round;" />
<text x="1863.9" y="1059.6" style="fill: rgb(0,0,0); font-size: 12.0px; text-anchor: start" transform="rotate(3.5,1863.9,1059.6)">2</text>
<line x1="1846.4" y1="1078.1" x2="1850.4" y2="1078.5" style="stroke-width: 2.0; stroke: rgb(0,0,0); stroke-linecap: round;" />
<text x="1861.7" y="1086.1" style="fill: rgb(0,0,0); font-size: 12.0px; text-anchor: start" transform="rotate(5.3,1861.7,1086.1)">3</text>
<line x1="1843.6" y1="1104.1" x2="1847.6" y2="1104.6" style="stroke-width: 2.0; stroke: rgb(0,0,0); stroke-linecap: round;" />
<text x="1858.7" y="1112.0" style="fill: rgb(0,0,0); font-size: 12.0px; text-anchor: start" transform="rotate(7.0,1858.7,1112.0)">4</text>
<line x1="1840.0" y1="1129.9" x2="1844.0" y2="1130.5" style="stroke-width: 2.0; stroke: rgb(0,0,0); stroke-linecap: round;" />
<text x="1854.8" y="1138.8" style="fill: rgb(0,0,0); font-size: 12.0px; text-anchor: start" transform="rotate(8.8,1854.8,1138.8)">5</text>
<line x1="1835.6" y1="1155.6" x2="1839.6" y2="1156.4" style="stroke-width: 2.0; stroke: rgb(0,0,0); stroke-linecap: round;" />
<text x="1850.1" y="1164.9" style="fill: rgb(0,0,0); font-size: 12.0px; text-anchor: start" transform="rotate(10.6,1850.1,1164.9)">6</text>
<line x1="1830.5" y1="1181.2" x2="1834.4" y2="1182.1" style="stroke-width: 2.0; stroke: rgb(0,0,0); stroke-linecap: round;" />
<text x="1844.8" y="1190.5" style="fill: rgb(0,0,0); font-size: 12.0px; text-anchor: start" transform="rotate(12.3,1844.8,1190.5)">7</text>
<line x1="1824.5" y1="1206.6" x2="1828.4" y2="1207.6" style="stroke-width: 2.0; stroke: rgb(0,0,0); stroke-linecap: round;" />
<text x="1838.4" y="1216.8" style="fill: rgb(0,0,0); font-size: 12.0px; text-anchor: start" transform="rotate(14.1,1838.4,1216.8)">8</text>
<line x1="1817.8" y1="1231.8" x2="1821.6" y2="1232.9" style="stroke-width: 2.0; stroke: rgb(0,0,0); stroke-linecap: round;" />
<text x="1831.4" y="1242.4" style="fill: rgb(0,0,0); font-size: 12.0px; text-anchor: start" transform="rotate(15.8,1831.4,1242.4)">9</text>
<line x1="1810.3" y1="1256.8" x2="1814.1" y2="1258.0" style="stroke-width: 2.0; stroke: rgb(0,0,0); stroke-linecap: round;" />
<text x="1823.6" y="1267.8" style="fill: rgb(0,0,0); font-size: 12.0px; text-anchor: start" transform="rotate(17.6,1823.6,1267.8)">10</text>
<line x1="1802.0" y1="1281.5" x2="1805.8" y2="1282.9" style="stroke-width: 2.0; stroke: rgb(0,0,0); stroke-linecap: round;" />
<text x="1814.9" y="1292.9" style="fill: rgb(0,0,0); font-size: 12.0px; text-anchor: start" transform="rotate(19.3,1814.9,1292.9)">11</text>
<line x1="1793.0" y1="1306.0" x2="1796.7" y2="1307.4" style="stroke-width: 2.0; stroke: rgb(0,0,0); stroke-linecap: round;" />
<text x="1805.6" y="1317.8" style="fill: rgb(0,0,0); font-size: 12.0px; text-anchor: start" transform="rotate(21.1,1805.6,1317.8)">12</text>
<line x1="1783.2" y1="1330.2" x2="1786.9" y2="1331.7" style="stroke-width: 2.0; stroke: rgb(0,0,0); stroke-linecap: round;" />
<text x="1795.4" y="1342.4" style="fill: rgb(0,0,0); font-size: 12.0px; text-anchor: start" transform="rotate(22.9,1795.4,1342.4)">13</text>
<line x1="1772.7" y1="1354.1" x2="1776.4" y2="1355.7" style="stroke-width: 2.0; stroke: rgb(0,0,0); stroke-linecap: round;" />
<text x="1784.6" y="1366.6" style="fill: rgb(0,0,0); font-size: 12.0px; text-anchor: start" transform="rotate(24.6,1784.6,1366.6)">14</text>
<line x1="1761.5" y1="1377.6" x2="1765.1" y2="1379.4" style="stroke-width: 2.0; stroke: rgb(0,0,0); stroke-linecap: round;" />
<text x="1772.9" y="1390.5" style="fill: rgb(0,0,0); font-size: 12.0px; text-anchor: start" transform="rotate(26.4,1772.9,1390.5)">15</text>
<line x1="1749.6" y1="1400.8" x2="1753.1" y2="1402.7" style="stroke-width: 2.0; stroke: rgb(0,0,0); stroke-linecap: round;" />
<text x="1760.6" y="1414.1" style="fill: rgb(0,0,0); font-size: 12.0px; text-anchor: start" transform="rotate(28.1,1760.6,1414.1)">16</text>
<line x1="1736.9" y1="1423.6" x2="1740.4" y2="1425.6" style="stroke-width: 2.0; stroke: rgb(0,0,0); stroke-linecap: round;" />
<text x="1747.5" y="1437.2" style="fill: rgb(0,0,0); font-size: 12.0px; text-anchor: start" transform="rotate(29.9,1747.5,1437.2)">17</text>
<line x1="1723.6" y1="1446.0" x2="1727.0" y2="1448.1" style="stroke-width: 2.0; stroke: rgb(0,0,0); stroke-linecap: round;" />
<text x="1733.8" y="1459.9" style="fill: rgb(0,0,0); font-size: 12.0px; text-anchor: start" transform="rotate(31.7,1733.8,1459.9)">18</text>
<line x1="1709.5" y1="1468.0" x2="1712.9" y2="1470.2" style="stroke-width: 2.0; stroke: rgb(0,0,0); stroke-linecap: round;" />
<text x="1719.3" y="1482.2" style="fill: rgb(0,0,0); font-size: 12.0px; text-anchor: start" transform="rotate(33.4,1719.3,1482.2)">19</text>
<line x1="1694.9" y1="1489.6" x2="1698.1" y2="1491.9" style="stroke-width: 2.0; stroke: rgb(0,0,0); stroke-linecap: round;" />
<text x="1704.2" y="1504.1" style="fill: rgb(0,0,0); font-size: 12.0px; text-anchor: start" transform="rotate(35.2,1704.2,1504.1)">20</text>
<line x1="1679.5" y1="1510.7" x2="1682.7" y2="1513.1" style="stroke-width: 2.0; stroke: rgb(0,0,0); stroke-linecap: round;" />
<text x="1688.4" y="1525.5" style="fill: rgb(0,0,0); font-size: 12.0px; text-anchor: start" transform="rotate(36.9,1688.4,1525.5)">21</text>
<line x1="1663.5" y1="1531.3" x2="1666.6" y2="1533.8" style="stroke-width: 2.0; stroke: rgb(0,0,0); stroke-linecap: round;" />
<text x="1671.9" y="1546.3" style="fill: rgb(0,0,0); font-size: 12.0px; text-anchor: start" transform="rotate(38.7,1671.9,1546.3)">22</text>
<line x1="1646.9" y1="1551.4" x2="1649.9" y2="1554.0" style="stroke-width: 2.0; stroke: rgb(0,0,0); stroke-linecap: round;" />
<text x="1654.8" y="1566.7" style="fill: rgb(0,0,0); font-size: 12.0px; text-anchor: start" transform="rotate(40.4,1654.8,1566.7)">23</text>
<line x1="1629.7" y1="1571.0" x2="1632.6" y2="1573.7" style="stroke-width: 2.0; stroke: rgb(0,0,0); stroke-linecap: round;" />
<text x="1637.1" y="1586.5" style="fill: rgb(0,0,0); font-size: 12.0px; text-anchor: start" transform="rotate(42.2,1637.1,1586.5)">24</text>
<line x1="1611.9" y1="1590.0" x2="1614.7" y2="1592.8" style="stroke-width: 2.0; stroke: rgb(0,0,0); stroke-linecap: round;" />
<text x="1618.8" y="1605.8" style="fill: rgb(0,0,0); font-size: 12.0px; text-anchor: start" transform="rotate(44.0,1618.8,1605.8)">25</text>
<line x1="1593.5" y1="1608.5" x2="1596.3" y2="1611.4" style="stroke-width: 2.0; stroke: rgb(0,0,0); stroke-linecap: round;" />
<text x="1600.0" y="1624.5" style="fill: rgb(0,0,0); font-size: 12.0px; text-anchor: start" transform="rotate(45.7,1600.0,1624.5)">26</text>
<line x1="1574.5" y1="1626.4" x2="1577.2" y2="1629.4" style="stroke-width: 2.0; stroke: rgb(0,0,0); stroke-linecap: round;" />
<text x="1580.5" y="1642.6" style="fill: rgb(0,0,0); font-size: 12.0px; text-anchor: start" transform="rotate(47.5,1580.5,1642.6)">27</text>
<line x1="1555.0" y1="1643.8" x2="1557.6" y2="1646.8" style="stroke-width: 2.0; stroke: rgb(0,0,0); stroke-linecap: round;" />
<text x="1560.5" y="1660.1" style="fill: rgb(0,0,0); font-size: 12.0px; text-anchor: start" transform="rotate(49.2,1560.5,1660.1)">28</text>
<line x1="1535.0" y1="1660.5" x2="1537.5" y2="1663.6" style="stroke-width: 2.0; stroke: rgb(0,0,0); stroke-linecap: round;" />
<text x="1540.0" y="1677.0" style="fill: rgb(0,0,0); font-size: 12.0px; text-anchor: start" transform="rotate(51.0,1540.0,1677.0)">29</text>
<line x1="1514.5" y1="1676.6" x2="1516.9" y2="1679.8" style="stroke-width: 2.0; stroke: rgb(0,0,0); stroke-linecap: round;" />
<text x="1519.0" y="1693.3" style="fill: rgb(0,0,0); font-size: 12.0px; text-anchor: start" transform="rotate(52.8,1519.0,1693.3)">30</text>
<path d="M 1800.000,1000.000 A800.000,800.000 0.000 0,1 1475.826,1643.110 L 1505.565,1683.304 A850.000,850.000 0.000 0,0 1850.000,1000.000 Z " style="stroke-width: 2.0; stroke: rgb(0,0,0); fill: none; " />
<path d="M 1259.312,1756.807 A800.000,800.000 0.000 0,1 783.206,1770.065 L 769.657,1818.194 A850.000,850.000 0.000 0,0 1275.519,1804.108 Z " style="stroke-width: 2.0; stroke: rgb(0,0,0); fill: rgb(247,42,66); " />
<text x="1000.3" y="1890.0" style="fill: rgb(0,0,0); font-size: 48.0px; text-anchor: start" transform="rotate(88.4,1000.3,1890.0)">2</text>
<line x1="1250.7" y1="1812.2" x2="1251.9" y2="1816.0" style="stroke-width: 2.0; stroke: rgb(0,0,0); stroke-linecap: round;" />
<text x="1249.2" y="1829.4" style="fill: rgb(0,0,0); font-size: 12.0px; text-anchor: start" transform="rotate(72.8,1249.2,1829.4)">1</text>
<line x1="1225.7" y1="1819.5" x2="1226.7" y2="1823.4" style="stroke-width: 2.0; stroke: rgb(0,0,0); stroke-linecap: round;" />
<text x="1223.7" y="1836.6" style="fill: rgb(0,0,0); font-size: 12.0px; text-anchor: start" transform="rotate(74.6,1223.7,1836.6)">2</text>
<line x1="1200.4" y1="1826.0" x2="1201.4" y2="1829.9" style="stroke-width: 2.0; stroke: rgb(0,0,0); stroke-linecap: round;" />
<text x="1197.9" y="1843.1" style="fill: rgb(0,0,0); font-size: 12.0px; text-anchor: start" transform="rotate(76.4,1197.9,1843.1)">3</text>
<line x1="1175.0" y1="1831.8" x2="1175.8" y2="1835.7" style="stroke-width: 2.0; stroke: rgb(0,0,0); stroke-linecap: round;" />
<text x="1172.4" y="1848.7" style="fill: rgb(0,0,0); font-size: 12.0px; text-anchor: start" transform="rotate(78.1,1172.4,1848.7)">4</text>
<line x1="1149.4" y1="1836.8" x2="1150.1" y2="1840.7" style="stroke-width: 2.0; stroke: rgb(0,0,0); stroke-linecap: round;" />
<text x="1145.8" y="1853.6" style="fill: rgb(0,0,0); font-size: 12.0px; text-anchor: start" transform="rotate(79.9,1145.8,1853.6)">5</text>
<line x1="1123.6" y1="1841.0" x2="1124.2" y2="1844.9" style="stroke-width: 2.0; stroke: rgb(0,0,0); stroke-linecap: round;" />
<text x="1119.5" y="1857.7" style="fill: rgb(0,0,0); font-size: 12.0px; text-anchor: start" transform="rotate(81.6,1119.5,1857.7)">6</text>
<line x1="1097.8" y1="1844.4" x2="1098.2" y2="1848.3" style="stroke-width: 2.0; stroke: rgb(0,0,0); stroke-linecap: round;" />
<text x="1093.6" y="1860.9" style="fill: rgb(0,0,0); font-size: 12.0px; text-anchor: start" transform="rotate(83.4,1093.6,1860.9)">7</text>
<line x1="1071.8" y1="1847.0" x2="1072.2" y2="1850.9" style="stroke-width: 2.0; stroke: rgb(0,0,0); stroke-linecap: round;" />
<text x="1066.7" y="1863.4" style="fill: rgb(0,0,0); font-size: 12.0px; text-anchor: start" transform="rotate(85.2,1066.7,1863.4)">8</text>
<line x1="1045.8" y1="1848.8" x2="1046.0" y2="1852.8" style="stroke-width: 2.0; stroke: rgb(0,0,0); stroke-linecap: round;" />
<text x="1040.2" y="1865.1" style="fill: rgb(0,0,0); font-size: 12.0px; text-anchor: start" transform="rotate(86.9,1040.2,1865.1)">9</text>
<line x1="1019.7" y1="1849.8" x2="1019.8" y2="1853.8" style="stroke-width: 2.0; stroke: rgb(0,0,0); stroke-linecap: round;" />
<text x="1013.6" y="1865.9" style="fill: rgb(0,0,0); font-size: 12.0px; text-anchor: start" transform="rotate(88.7,1013.6,1865.9)">10</text>
<line x1="993.6" y1="1850.0" x2="993.6" y2="1854.0" style="stroke-width: 2.0; stroke: rgb(0,0,0); stroke-linecap: round;" />
<text x="1000.0" y="1866.0" style="fill: rgb(0,0,0); font-size: 12.0px; text-anchor: end" transform="rotate(270.4,1000.0,1866.0)">11</text>
<line x1="967.6" y1="1849.4" x2="967.4" y2="1853.4" style="stroke-width: 2.0; stroke: rgb(0,0,0); stroke-linecap: round;" />
<text x="973.4" y="1865.6" style="fill: rgb(0,0,0); font-size: 12.0px; text-anchor: end" transform="rotate(272.2,973.4,1865.6)">12</text>
<line x1="941.5" y1="1848.0" x2="941.2" y2="1852.0" style="stroke-width: 2.0; stroke: rgb(0,0,0); stroke-linecap: round;" />
<text x="946.9" y="1864.4" style="fill: rgb(0,0,0); font-size: 12.0px; text-anchor: end" transform="rotate(273.9,946.9,1864.4)">13</text>
<line x1="915.5" y1="1845.8" x2="915.1" y2="1849.8" style="stroke-width: 2.0; stroke: rgb(0,0,0); stroke-linecap: round;" />
<text x="920.4" y="1862.3" style="fill: rgb(0,0,0); font-size: 12.0px; text-anchor: end" transform="rotate(275.7,920.4,1862.3)">14</text>
<line x1="889.6" y1="1842.8" x2="889.1" y2="1846.8" style="stroke-width: 2.0; stroke: rgb(0,0,0); stroke-linecap: round;" />
<text x="894.0" y="1859.5" style="fill: rgb(0,0,0); font-size: 12.0px; text-anchor: end" transform="rotate(277.5,894.0,1859.5)">15</text>
<line x1="863.8" y1="1839.0" x2="863.2" y2="1843.0" style="stroke-width: 2.0; stroke: rgb(0,0,0); stroke-linecap: round;" />
<text x="867.7" y="1855.8" style="fill: rgb(0,0,0); font-size: 12.0px; text-anchor: end" transform="rotate(279.2,867.7,1855.8)">16</text>
<line x1="838.1" y1="1834.4" x2="837.4" y2="1838.4" style="stroke-width: 2.0; stroke: rgb(0,0,0); stroke-linecap: round;" />
<text x="841.5" y="1851.4" style="fill: rgb(0,0,0); font-size: 12.0px; text-anchor: end" transform="rotate(281.0,841.5,1851.4)">17</text>
<line x1="812.6" y1="1829.1" x2="811.7" y2="1833.0" style="stroke-width: 2.0; stroke: rgb(0,0,0); stroke-linecap: round;" />
<text x="815.4" y="1846.1" style="fill: rgb(0,0,0); font-size: 12.0px; text-anchor: end" transform="rotate(282.7,815.4,1846.1)">18</text>
<line x1="787.2" y1="1822.9" x2="786.2" y2="1826.8" style="stroke-width: 2.0; stroke: rgb(0,0,0); stroke-linecap: round;" />
<text x="789.5" y="1840.0" style="fill: rgb(0,0,0); font-size: 12.0px; text-anchor: end" transform="rotate(284.5,789.5,1840.0)">19</text>
<path d="M 1259.312,1756.807 A800.000,800.000 0.000 0,1 783.206,1770.065 L 769.657,1818.194 A850.000,850.000 0.000 0,0 1275.519,1804.108 Z " style="stroke-width: 2.0; stroke: rgb(0,0,0); fill: none; " />
<path d="M 560.701,1668.593 A800.000,800.000 0.000 0,1 228.880,1213.012 L 180.685,1226.325 A850.000,850.000 0.000 0,0 533.244,1710.380 Z " style="stroke-width: 2.0; stroke: rgb(0,0,0); fill: rgb(247,42,66); " />
<text x="295.6" y="1544.0" style="fill: rgb(0,0,0); font-size: 48.0px; text-anchor: end" transform="rotate(323.9,295.6,1544.0)">3</text>
<line x1="511.7" y1="1695.7" x2="509.4" y2="1699.0" style="stroke-width: 2.0; stroke: rgb(0,0,0); stroke-linecap: round;" />
<text x="507.8" y="1712.5" style="fill: rgb(0,0,0); font-size: 12.0px; text-anchor: end" transform="rotate(305.1,507.8,1712.5)">1</text>
<line x1="490.5" y1="1680.4" x2="488.2" y2="1683.6" style="stroke-width: 2.0; stroke: rgb(0,0,0); stroke-linecap: round;" />
<text x="486.2" y="1697.1" style="fill: rgb(0,0,0); font-size: 12.0px; text-anchor: end" transform="rotate(306.8,486.2,1697.1)">2</text>
<line x1="469.9" y1="1664.5" x2="467.4" y2="1667.6" style="stroke-width: 2.0; stroke: rgb(0,0,0); stroke-linecap: round;" />
<text x="465.0" y="1681.0" style="fill: rgb(0,0,0); font-size: 12.0px; text-anchor: end" transform="rotate(308.6,465.0,1681.0)">3</text>
<line x1="449.8" y1="1647.9" x2="447.2" y2="1650.9" style="stroke-width: 2.0; stroke: rgb(0,0,0); stroke-linecap: round;" />
<text x="444.0" y="1663.9" style="fill: rgb(0,0,0); font-size: 12.0px; text-anchor: end" transform="rotate(310.3,444.0,1663.9)">4</text>
<line x1="430.2" y1="1630.7" x2="427.5" y2="1633.7" style="stroke-width: 2.0; stroke: rgb(0,0,0); stroke-linecap: round;" />
<text x="424.3" y="1646.9" style="fill: rgb(0,0,0); font-size: 12.0px; text-anchor: end" transform="rotate(312.1,424.3,1646.9)">5</text>
<line x1="411.1" y1="1612.9" x2="408.3" y2="1615.8" style="stroke-width: 2.0; stroke: rgb(0,0,0); stroke-linecap: round;" />
<text x="404.7" y="1628.9" style="fill: rgb(0,0,0); font-size: 12.0px; text-anchor: end" transform="rotate(313.9,404.7,1628.9)">6</text>
<line x1="392.5" y1="1594.5" x2="389.7" y2="1597.3" style="stroke-width: 2.0; stroke: rgb(0,0,0); stroke-linecap: round;" />
<text x="385.3" y="1610.0" style="fill: rgb(0,0,0); font-size: 12.0px; text-anchor: end" transform="rotate(315.6,385.3,1610.0)">7</text>
<line x1="374.6" y1="1575.6" x2="371.6" y2="1578.3" style="stroke-width: 2.0; stroke: rgb(0,0,0); stroke-linecap: round;" />
<text x="367.2" y="1591.2" style="fill: rgb(0,0,0); font-size: 12.0px; text-anchor: end" transform="rotate(317.4,367.2,1591.2)">8</text>
<line x1="357.2" y1="1556.2" x2="354.2" y2="1558.8" style="stroke-width: 2.0; stroke: rgb(0,0,0); stroke-linecap: round;" />
<text x="349.4" y="1571.5" style="fill: rgb(0,0,0); font-size: 12.0px; text-anchor: end" transform="rotate(319.1,349.4,1571.5)">9</text>
<line x1="340.4" y1="1536.2" x2="337.3" y2="1538.7" style="stroke-width: 2.0; stroke: rgb(0,0,0); stroke-linecap: round;" />
<text x="332.2" y="1551.3" style="fill: rgb(0,0,0); font-size: 12.0px; text-anchor: end" transform="rotate(320.9,332.2,1551.3)">10</text>
<line x1="324.3" y1="1515.7" x2="321.1" y2="1518.1" style="stroke-width: 2.0; stroke: rgb(0,0,0); stroke-linecap: round;" />
<text x="315.6" y="1530.6" style="fill: rgb(0,0,0); font-size: 12.0px; text-anchor: end" transform="rotate(322.6,315.6,1530.6)">11</text>
<line x1="308.8" y1="1494.7" x2="305.5" y2="1497.0" style="stroke-width: 2.0; stroke: rgb(0,0,0); stroke-linecap: round;" />
<text x="299.6" y="1509.3" style="fill: rgb(0,0,0); font-size: 12.0px; text-anchor: end" transform="rotate(324.4,299.6,1509.3)">12</text>
<line x1="293.9" y1="1473.3" x2="290.6" y2="1475.5" style="stroke-width: 2.0; stroke: rgb(0,0,0); stroke-linecap: round;" />
<text x="284.3" y="1487.6" style="fill: rgb(0,0,0); font-size: 12.0px; text-anchor: end" transform="rotate(326.2,284.3,1487.6)">13</text>
<line x1="279.8" y1="1451.4" x2="276.4" y2="1453.5" style="stroke-width: 2.0; stroke: rgb(0,0,0); stroke-linecap: round;" />
<text x="269.7" y="1465.4" style="fill: rgb(0,0,0); font-size: 12.0px; text-anchor: end" transform="rotate(327.9,269.7,1465.4)">14</text>
<line x1="266.2" y1="1429.1" x2="262.8" y2="1431.1" style="stroke-width: 2.0; stroke: rgb(0,0,0); stroke-linecap: round;" />
<text x="255.7" y="1442.7" style="fill: rgb(0,0,0); font-size: 12.0px; text-anchor: end" transform="rotate(329.7,255.7,1442.7)">15</text>
<line x1="253.4" y1="1406.4" x2="249.9" y2="1408.3" style="stroke-width: 2.0; stroke: rgb(0,0,0); stroke-linecap: round;" />
<text x="242.5" y="1419.7" style="fill: rgb(0,0,0); font-size: 12.0px; text-anchor: end" transform="rotate(331.4,242.5,1419.7)">16</text>
<line x1="241.3" y1="1383.3" x2="237.7" y2="1385.1" style="stroke-width: 2.0; stroke: rgb(0,0,0); stroke-linecap: round;" />
<text x="230.0" y="1396.3" style="fill: rgb(0,0,0); font-size: 12.0px; text-anchor: end" transform="rotate(333.2,230.0,1396.3)">17</text>
<line x1="229.9" y1="1359.8" x2="226.3" y2="1361.5" style="stroke-width: 2.0; stroke: rgb(0,0,0); stroke-linecap: round;" />
<text x="218.2" y="1372.4" style="fill: rgb(0,0,0); font-size: 12.0px; text-anchor: end" transform="rotate(335.0,218.2,1372.4)">18</text>
<line x1="219.2" y1="1336.0" x2="215.6" y2="1337.6" style="stroke-width: 2.0; stroke: rgb(0,0,0); stroke-linecap: round;" />
<text x="207.1" y="1348.3" style="fill: rgb(0,0,0); font-size: 12.0px; text-anchor: end" transform="rotate(336.7,207.1,1348.3)">19</text>
<line x1="209.3" y1="1311.9" x2="205.6" y2="1313.3" style="stroke-width: 2.0; stroke: rgb(0,0,0); stroke-linecap: round;" />
<text x="196.8" y="1323.8" style="fill: rgb(0,0,0); font-size: 12.0px; text-anchor: end" transform="rotate(338.5,196.8,1323.8)">20</text>
<line x1="200.1" y1="1287.5" x2="196.3" y2="1288.8" style="stroke-width: 2.0; stroke: rgb(0,0,0); stroke-linecap: round;" />
<text x="187.3" y="1299.0" style="fill: rgb(0,0,0); font-size: 12.0px; text-anchor: end" transform="rotate(340.2,187.3,1299.0)">21</text>
<line x1="191.6" y1="1262.8" x2="187.8" y2="1264.0" style="stroke-width: 2.0; stroke: rgb(0,0,0); stroke-linecap: round;" />
<text x="178.5" y="1273.9" style="fill: rgb(0,0,0); font-size: 12.0px; text-anchor: end" transform="rotate(342.0,178.5,1273.9)">22</text>
<line x1="184.0" y1="1237.9" x2="180.1" y2="1239.0" style="stroke-width: 2.0; stroke: rgb(0,0,0); stroke-linecap: round;" />
<text x="170.4" y="1248.6" style="fill: rgb(0,0,0); font-size: 12.0px; text-anchor: end" transform="rotate(343.7,170.4,1248.6)">23</text>
<path d="M 560.701,1668.593 A800.000,800.000 0.000 0,1 228.880,1213.012 L 180.685,1226.325 A850.000,850.000 0.000 0,0 533.244,1710.380 Z " style="stroke-width: 2.0; stroke: rgb(0,0,0); fill: none; " />
<path d="M 200.559,970.106 A800.000,800.000 0.000 0,1 343.246,543.191 L 302.199,514.640 A850.000,850.000 0.000 0,0 150.594,968.238 Z " style="stroke-width: 2.0; stroke: rgb(0,0,0); fill: rgb(247,42,66); " />
<text x="148.6" y="740.7" style="fill: rgb(0,0,0); font-size: 48.0px; text-anchor: end" transform="rotate(18.5,148.6,740.7)">4</text>
<line x1="152.0" y1="942.2" x2="148.0" y2="941.9" style="stroke-width: 2.0; stroke: rgb(0,0,0); stroke-linecap: round;" />
<text x="135.6" y="947.6" style="fill: rgb(0,0,0); font-size: 12.0px; text-anchor: end" transform="rotate(3.9,135.6,947.6)">1</text>
<line x1="154.1" y1="916.2" x2="150.2" y2="915.8" style="stroke-width: 2.0; stroke: rgb(0,0,0); stroke-linecap: round;" />
<text x="137.6" y="921.1" style="fill: rgb(0,0,0); font-size: 12.0px; text-anchor: end" transform="rotate(5.7,137.6,921.1)">2</text>
<line x1="157.1" y1="890.3" x2="153.1" y2="889.8" style="stroke-width: 2.0; stroke: rgb(0,0,0); stroke-linecap: round;" />
<text x="140.4" y="894.7" style="fill: rgb(0,0,0); font-size: 12.0px; text-anchor: end" transform="rotate(7.4,140.4,894.7)">3</text>
<line x1="160.9" y1="864.5" x2="156.9" y2="863.8" style="stroke-width: 2.0; stroke: rgb(0,0,0); stroke-linecap: round;" />
<text x="144.1" y="867.8" style="fill: rgb(0,0,0); font-size: 12.0px; text-anchor: end" transform="rotate(9.2,144.1,867.8)">4</text>
<line x1="165.4" y1="838.8" x2="161.5" y2="838.0" style="stroke-width: 2.0; stroke: rgb(0,0,0); stroke-linecap: round;" />
<text x="148.5" y="842.1" style="fill: rgb(0,0,0); font-size: 12.0px; text-anchor: end" transform="rotate(10.9,148.5,842.1)">5</text>
<line x1="170.8" y1="813.3" x2="166.9" y2="812.4" style="stroke-width: 2.0; stroke: rgb(0,0,0); stroke-linecap: round;" />
<text x="153.8" y="816.1" style="fill: rgb(0,0,0); font-size: 12.0px; text-anchor: end" transform="rotate(12.7,153.8,816.1)">6</text>
<line x1="176.9" y1="787.9" x2="173.0" y2="786.9" style="stroke-width: 2.0; stroke: rgb(0,0,0); stroke-linecap: round;" />
<text x="159.9" y="789.7" style="fill: rgb(0,0,0); font-size: 12.0px; text-anchor: end" transform="rotate(14.5,159.9,789.7)">7</text>
<line x1="183.8" y1="762.7" x2="179.9" y2="761.6" style="stroke-width: 2.0; stroke: rgb(0,0,0); stroke-linecap: round;" />
<text x="166.6" y="764.5" style="fill: rgb(0,0,0); font-size: 12.0px; text-anchor: end" transform="rotate(16.2,166.6,764.5)">8</text>
<line x1="191.4" y1="737.8" x2="187.6" y2="736.6" style="stroke-width: 2.0; stroke: rgb(0,0,0); stroke-linecap: round;" />
<text x="174.2" y="739.1" style="fill: rgb(0,0,0); font-size: 12.0px; text-anchor: end" transform="rotate(18.0,174.2,739.1)">9</text>
<line x1="199.9" y1="713.1" x2="196.1" y2="711.8" style="stroke-width: 2.0; stroke: rgb(0,0,0); stroke-linecap: round;" />
<text x="182.6" y="713.8" style="fill: rgb(0,0,0); font-size: 12.0px; text-anchor: end" transform="rotate(19.7,182.6,713.8)">10</text>
<line x1="209.1" y1="688.7" x2="205.3" y2="687.2" style="stroke-width: 2.0; stroke: rgb(0,0,0); stroke-linecap: round;" />
<text x="191.8" y="688.9" style="fill: rgb(0,0,0); font-size: 12.0px; text-anchor: end" transform="rotate(21.5,191.8,688.9)">11</text>
<line x1="219.0" y1="664.6" x2="215.3" y2="663.0" style="stroke-width: 2.0; stroke: rgb(0,0,0); stroke-linecap: round;" />
<text x="201.7" y="664.2" style="fill: rgb(0,0,0); font-size: 12.0px; text-anchor: end" transform="rotate(23.2,201.7,664.2)">12</text>
<line x1="229.6" y1="640.8" x2="226.0" y2="639.1" style="stroke-width: 2.0; stroke: rgb(0,0,0); stroke-linecap: round;" />
<text x="212.4" y="639.9" style="fill: rgb(0,0,0); font-size: 12.0px; text-anchor: end" transform="rotate(25.0,212.4,639.9)">13</text>
<line x1="241.0" y1="617.3" x2="237.5" y2="615.5" style="stroke-width: 2.0; stroke: rgb(0,0,0); stroke-linecap: round;" />
<text x="223.8" y="615.9" style="fill: rgb(0,0,0); font-size: 12.0px; text-anchor: end" transform="rotate(26.8,223.8,615.9)">14</text>
<line x1="253.1" y1="594.2" x2="249.6" y2="592.3" style="stroke-width: 2.0; stroke: rgb(0,0,0); stroke-linecap: round;" />
<text x="236.0" y="592.3" style="fill: rgb(0,0,0); font-size: 12.0px; text-anchor: end" transform="rotate(28.5,236.0,592.3)">15</text>
<line x1="265.9" y1="571.5" x2="262.5" y2="569.5" style="stroke-width: 2.0; stroke: rgb(0,0,0); stroke-linecap: round;" />
<text x="248.9" y="569.0" style="fill: rgb(0,0,0); font-size: 12.0px; text-anchor: end" transform="rotate(30.3,248.9,569.0)">16</text>
<line x1="279.4" y1="549.1" x2="276.0" y2="547.0" style="stroke-width: 2.0; stroke: rgb(0,0,0); stroke-linecap: round;" />
<text x="262.4" y="546.2" style="fill: rgb(0,0,0); font-size: 12.0px; text-anchor: end" transform="rotate(32.0,262.4,546.2)">17</text>
<line x1="293.6" y1="527.2" x2="290.3" y2="525.0" style="stroke-width: 2.0; stroke: rgb(0,0,0); stroke-linecap: round;" />
<text x="276.7" y="523.8" style="fill: rgb(0,0,0); font-size: 12.0px; text-anchor: end" transform="rotate(33.8,276.7,523.8)">18</text>
<path d="M 200.559,970.106 A800.000,800.000 0.000 0,1 343.246,543.191 L 302.199,514.640 A850.000,850.000 0.000 0,0 150.594,968.238 Z " style="stroke-width: 2.0; stroke: rgb(0,0,0); fill: none; " />
<path d="M 511.933,366.131 A800.000,800.000 0.000 0,1 1136.679,211.762 L 1145.222,162.497 A850.000,850.000 0.000 0,0 481.429,326.514 Z " style="stroke-width: 2.0; stroke: rgb(0,0,0); fill: rgb(247,42,66); " />
<text x="762.8" y="142.2" style="fill: rgb(0,0,0); font-size: 48.0px; text-anchor: end" transform="rotate(76.1,762.8,142.2)">5</text>
<line x1="502.3" y1="310.9" x2="500.0" y2="307.7" style="stroke-width: 2.0; stroke: rgb(0,0,0); stroke-linecap: round;" />
<text x="487.7" y="301.8" style="fill: rgb(0,0,0); font-size: 12.0px; text-anchor: end" transform="rotate(54.2,487.7,301.8)">1</text>
<line x1="523.7" y1="296.0" x2="521.5" y2="292.7" style="stroke-width: 2.0; stroke: rgb(0,0,0); stroke-linecap: round;" />
<text x="509.4" y="286.4" style="fill: rgb(0,0,0); font-size: 12.0px; text-anchor: end" transform="rotate(55.9,509.4,286.4)">2</text>
<line x1="545.5" y1="281.7" x2="543.4" y2="278.3" style="stroke-width: 2.0; stroke: rgb(0,0,0); stroke-linecap: round;" />
<text x="531.5" y="271.7" style="fill: rgb(0,0,0); font-size: 12.0px; text-anchor: end" transform="rotate(57.7,531.5,271.7)">3</text>
<line x1="567.8" y1="268.1" x2="565.8" y2="264.6" style="stroke-width: 2.0; stroke: rgb(0,0,0); stroke-linecap: round;" />
<text x="554.5" y="257.4" style="fill: rgb(0,0,0); font-size: 12.0px; text-anchor: end" transform="rotate(59.4,554.5,257.4)">4</text>
<line x1="590.5" y1="255.2" x2="588.5" y2="251.7" style="stroke-width: 2.0; stroke: rgb(0,0,0); stroke-linecap: round;" />
<text x="577.1" y="244.3" style="fill: rgb(0,0,0); font-size: 12.0px; text-anchor: end" transform="rotate(61.2,577.1,244.3)">5</text>
<line x1="613.5" y1="243.0" x2="611.7" y2="239.4" style="stroke-width: 2.0; stroke: rgb(0,0,0); stroke-linecap: round;" />
<text x="600.5" y="231.7" style="fill: rgb(0,0,0); font-size: 12.0px; text-anchor: end" transform="rotate(63.0,600.5,231.7)">6</text>
<line x1="636.9" y1="231.4" x2="635.2" y2="227.8" style="stroke-width: 2.0; stroke: rgb(0,0,0); stroke-linecap: round;" />
<text x="624.7" y="219.6" style="fill: rgb(0,0,0); font-size: 12.0px; text-anchor: end" transform="rotate(64.7,624.7,219.6)">7</text>
<line x1="660.7" y1="220.7" x2="659.1" y2="217.0" style="stroke-width: 2.0; stroke: rgb(0,0,0); stroke-linecap: round;" />
<text x="648.3" y="208.6" style="fill: rgb(0,0,0); font-size: 12.0px; text-anchor: end" transform="rotate(66.5,648.3,208.6)">8</text>
<line x1="684.7" y1="210.6" x2="683.3" y2="206.9" style="stroke-width: 2.0; stroke: rgb(0,0,0); stroke-linecap: round;" />
<text x="672.8" y="198.2" style="fill: rgb(0,0,0); font-size: 12.0px; text-anchor: end" transform="rotate(68.2,672.8,198.2)">9</text>
<line x1="709.1" y1="201.3" x2="707.7" y2="197.6" style="stroke-width: 2.0; stroke: rgb(0,0,0); stroke-linecap: round;" />
<text x="697.5" y="188.5" style="fill: rgb(0,0,0); font-size: 12.0px; text-anchor: end" transform="rotate(70.0,697.5,188.5)">10</text>
<line x1="733.8" y1="192.8" x2="732.5" y2="189.0" style="stroke-width: 2.0; stroke: rgb(0,0,0); stroke-linecap: round;" />
<text x="722.6" y="179.6" style="fill: rgb(0,0,0); font-size: 12.0px; text-anchor: end" transform="rotate(71.7,722.6,179.6)">11</text>
<line x1="758.7" y1="185.0" x2="757.5" y2="181.1" style="stroke-width: 2.0; stroke: rgb(0,0,0); stroke-linecap: round;" />
<text x="747.9" y="171.5" style="fill: rgb(0,0,0); font-size: 12.0px; text-anchor: end" transform="rotate(73.5,747.9,171.5)">12</text>
<line x1="783.8" y1="178.0" x2="782.8" y2="174.1" style="stroke-width: 2.0; stroke: rgb(0,0,0); stroke-linecap: round;" />
<text x="773.4" y="164.2" style="fill: rgb(0,0,0); font-size: 12.0px; text-anchor: end" transform="rotate(75.3,773.4,164.2)">13</text>
<line x1="809.1" y1="171.7" x2="808.2" y2="167.8" style="stroke-width: 2.0; stroke: rgb(0,0,0); stroke-linecap: round;" />
<text x="799.2" y="157.6" style="fill: rgb(0,0,0); font-size: 12.0px; text-anchor: end" transform="rotate(77.0,799.2,157.6)">14</text>
<line x1="834.6" y1="166.2" x2="833.8" y2="162.3" style="stroke-width: 2.0; stroke: rgb(0,0,0); stroke-linecap: round;" />
<text x="825.1" y="151.8" style="fill: rgb(0,0,0); font-size: 12.0px; text-anchor: end" transform="rotate(78.8,825.1,151.8)">15</text>
<line x1="860.3" y1="161.6" x2="859.6" y2="157.6" style="stroke-width: 2.0; stroke: rgb(0,0,0); stroke-linecap: round;" />
<text x="851.2" y="146.9" style="fill: rgb(0,0,0); font-size: 12.0px; text-anchor: end" transform="rotate(80.5,851.2,146.9)">16</text>
<line x1="886.1" y1="157.7" x2="885.5" y2="153.7" style="stroke-width: 2.0; stroke: rgb(0,0,0); stroke-linecap: round;" />
<text x="877.5" y="142.7" style="fill: rgb(0,0,0); font-size: 12.0px; text-anchor: end" transform="rotate(82.3,877.5,142.7)">17</text>
<line x1="912.0" y1="154.6" x2="911.5" y2="150.6" style="stroke-width: 2.0; stroke: rgb(0,0,0); stroke-linecap: round;" />
<text x="903.8" y="139.4" style="fill: rgb(0,0,0); font-size: 12.0px; text-anchor: end" transform="rotate(84.1,903.8,139.4)">18</text>
<line x1="937.9" y1="152.3" x2="937.7" y2="148.3" style="stroke-width: 2.0; stroke: rgb(0,0,0); stroke-linecap: round;" />
<text x="930.3" y="136.8" style="fill: rgb(0,0,0); font-size: 12.0px; text-anchor: end" transform="rotate(85.8,930.3,136.8)">19</text>
<line x1="964.0" y1="150.8" x2="963.8" y2="146.8" style="stroke-width: 2.0; stroke: rgb(0,0,0); stroke-linecap: round;" />
<text x="956.8" y="135.1" style="fill: rgb(0,0,0); font-size: 12.0px; text-anchor: end" transform="rotate(87.6,956.8,135.1)">20</text>
<line x1="990.1" y1="150.1" x2="990.0" y2="146.1" style="stroke-width: 2.0; stroke: rgb(0,0,0); stroke-linecap: round;" />
<text x="983.4" y="134.2" style="fill: rgb(0,0,0); font-size: 12.0px; text-anchor: end" transform="rotate(89.3,983.4,134.2)">21</text>
<line x1="1016.1" y1="150.2" x2="1016.2" y2="146.2" style="stroke-width: 2.0; stroke: rgb(0,0,0); stroke-linecap: round;" />
<text x="1022.9" y="134.3" style="fill: rgb(0,0,0); font-size: 12.0px; text-anchor: start" transform="rotate(271.1,1022.9,134.3)">22</text>
<line x1="1042.2" y1="151.0" x2="1042.4" y2="147.1" style="stroke-width: 2.0; stroke: rgb(0,0,0); stroke-linecap: round;" />
<text x="1049.5" y="135.4" style="fill: rgb(0,0,0); font-size: 12.0px; text-anchor: start" transform="rotate(272.8,1049.5,135.4)">23</text>
<line x1="1068.2" y1="152.7" x2="1068.6" y2="148.8" style="stroke-width: 2.0; stroke: rgb(0,0,0); stroke-linecap: round;" />
<text x="1076.0" y="137.3" style="fill: rgb(0,0,0); font-size: 12.0px; text-anchor: start" transform="rotate(274.6,1076.0,137.3)">24</text>
<line x1="1094.2" y1="155.2" x2="1094.7" y2="151.3" style="stroke-width: 2.0; stroke: rgb(0,0,0); stroke-linecap: round;" />
<text x="1102.4" y="140.1" style="fill: rgb(0,0,0); font-size: 12.0px; text-anchor: start" transform="rotate(276.4,1102.4,140.1)">25</text>
<line x1="1120.1" y1="158.5" x2="1120.7" y2="154.6" style="stroke-width: 2.0; stroke: rgb(0,0,0); stroke-linecap: round;" />
<text x="1128.8" y="143.6" style="fill: rgb(0,0,0); font-size: 12.0px; text-anchor: start" transform="rotate(278.1,1128.8,143.6)">26</text>
<path d="M 511.933,366.131 A800.000,800.000 0.000 0,1 1136.679,211.762 L 1145.222,162.497 A850.000,850.000 0.000 0,0 481.429,326.514 Z " style="stroke-width: 2.0; stroke: rgb(0,0,0); fill: none; " />
<path d="M 1390.034,301.521 A800.000,800.000 0.000 0,1 1503.537,378.349 L 1535.008,339.495 A850.000,850.000 0.000 0,0 1414.411,257.866 Z " style="stroke-width: 2.0; stroke: rgb(0,0,0); fill: rgb(255,136,0); " />
<text x="1519.4" y="277.3" style="fill: rgb(0,0,0); font-size: 48.0px; text-anchor: start" transform="rotate(304.1,1519.4,277.3)">19</text>
<line x1="1414.4" y1="257.9" x2="1416.4" y2="254.4" style="stroke-width: 2.0; stroke: rgb(0,0,0); stroke-linecap: round;" />
<text x="1427.9" y="247.1" style="fill: rgb(0,0,0); font-size: 12.0px; text-anchor: start" transform="rotate(299.2,1427.9,247.1)">45</text>
<line x1="1437.0" y1="270.9" x2="1439.0" y2="267.5" style="stroke-width: 2.0; stroke: rgb(0,0,0); stroke-linecap: round;" />
<text x="1450.8" y="260.6" style="fill: rgb(0,0,0); font-size: 12.0px; text-anchor: start" transform="rotate(300.9,1450.8,260.6)">46</text>
<line x1="1459.2" y1="284.7" x2="1461.3" y2="281.3" style="stroke-width: 2.0; stroke: rgb(0,0,0); stroke-linecap: round;" />
<text x="1472.8" y="274.5" style="fill: rgb(0,0,0); font-size: 12.0px; text-anchor: start" transform="rotate(302.7,1472.8,274.5)">47</text>
<line x1="1480.9" y1="299.1" x2="1483.1" y2="295.8" style="stroke-width: 2.0; stroke: rgb(0,0,0); stroke-linecap: round;" />
<text x="1495.3" y="289.6" style="fill: rgb(0,0,0); font-size: 12.0px; text-anchor: start" transform="rotate(304.5,1495.3,289.6)">48</text>
<line x1="1502.2" y1="314.2" x2="1504.5" y2="311.0" style="stroke-width: 2.0; stroke: rgb(0,0,0); stroke-linecap: round;" />
<text x="1516.8" y="305.1" style="fill: rgb(0,0,0); font-size: 12.0px; text-anchor: start" transform="rotate(306.2,1516.8,305.1)">49</text>
<line x1="1523.0" y1="329.9" x2="1525.4" y2="326.8" style="stroke-width: 2.0; stroke: rgb(0,0,0); stroke-linecap: round;" />
<text x="1537.9" y="321.3" style="fill: rgb(0,0,0); font-size: 12.0px; text-anchor: start" transform="rotate(308.0,1537.9,321.3)">50</text>
<path d="M 1390.034,301.521 A800.000,800.000 0.000 0,1 1503.537,378.349 L 1535.008,339.495 A850.000,850.000 0.000 0,0 1414.411,257.866 Z " style="stroke-width: 2.0; stroke: rgb(0,0,0); fill: none; " />
<path d="M 1681.011,580.210 A800.000,800.000 0.000 0,1 1754.847,735.035 L 1802.025,718.475 A850.000,850.000 0.000 0,0 1723.575,553.973 Z " style="stroke-width: 2.0; stroke: rgb(0,0,0); fill: rgb(255,136,0); " />
<text x="1813.8" y="639.6" style="fill: rgb(0,0,0); font-size: 48.0px; text-anchor: start" transform="rotate(334.5,1813.8,639.6)">15</text>
<line x1="1723.6" y1="554.0" x2="1727.0" y2="551.9" style="stroke-width: 2.0; stroke: rgb(0,0,0); stroke-linecap: round;" />
<text x="1740.6" y="551.1" style="fill: rgb(0,0,0); font-size: 12.0px; text-anchor: start" transform="rotate(328.3,1740.6,551.1)">8</text>
<line x1="1736.9" y1="576.4" x2="1740.4" y2="574.4" style="stroke-width: 2.0; stroke: rgb(0,0,0); stroke-linecap: round;" />
<text x="1754.0" y="574.1" style="fill: rgb(0,0,0); font-size: 12.0px; text-anchor: start" transform="rotate(330.1,1754.0,574.1)">9</text>
<line x1="1749.6" y1="599.2" x2="1753.1" y2="597.3" style="stroke-width: 2.0; stroke: rgb(0,0,0); stroke-linecap: round;" />
<text x="1766.7" y="597.4" style="fill: rgb(0,0,0); font-size: 12.0px; text-anchor: start" transform="rotate(331.9,1766.7,597.4)">10</text>
<line x1="1761.5" y1="622.4" x2="1765.1" y2="620.6" style="stroke-width: 2.0; stroke: rgb(0,0,0); stroke-linecap: round;" />
<text x="1778.7" y="621.1" style="fill: rgb(0,0,0); font-size: 12.0px; text-anchor: start" transform="rotate(333.6,1778.7,621.1)">11</text>
<line x1="1772.7" y1="645.9" x2="1776.4" y2="644.3" style="stroke-width: 2.0; stroke: rgb(0,0,0); stroke-linecap: round;" />
<text x="1790.0" y="645.2" style="fill: rgb(0,0,0); font-size: 12.0px; text-anchor: start" transform="rotate(335.4,1790.0,645.2)">12</text>
<line x1="1783.2" y1="669.8" x2="1786.9" y2="668.3" style="stroke-width: 2.0; stroke: rgb(0,0,0); stroke-linecap: round;" />
<text x="1800.5" y="669.6" style="fill: rgb(0,0,0); font-size: 12.0px; text-anchor: start" transform="rotate(337.1,1800.5,669.6)">13</text>
<line x1="1793.0" y1="694.0" x2="1796.7" y2="692.6" style="stroke-width: 2.0; stroke: rgb(0,0,0); stroke-linecap: round;" />
<text x="1810.3" y="694.3" style="fill: rgb(0,0,0); font-size: 12.0px; text-anchor: start" transform="rotate(338.9,1810.3,694.3)">14</text>
<path d="M 1681.011,580.210 A800.000,800.000 0.000 0,1 1754.847,735.035 L 1802.025,718.475 A850.000,850.000 0.000 0,0 1723.575,553.973 Z " style="stroke-width: 2.0; stroke: rgb(0,0,0); fill: none; " />
<path d="M 1377.053,273.238 A818.750,818.750 0.000 0,1 1399.175,285.150 L 1405.270,274.236 A831.250,831.250 0.000 0,0 1382.809,262.142 Z " style="stroke-width: 2.0; stroke: rgb(0,0,0); fill: rgb(54,116,217); " />
</g>
<g id="hom1">
<path d="M 1690.7,682.9 Q 1079.7,993.2 1734.3,1196.0" style="stroke-width: 2.0; stroke: rgb(100,100,100); fill: none" />
<path d="M 1429.0,372.6 Q 1079.0,987.1 1606.4,1458.1" style="stroke-width: 2.0; stroke: rgb(100,100,100); fill: none" />
<path d="M 1690.2,681.9 Q 995.4,920.1 277.9,763.0" style="stroke-width: 2.0; stroke: rgb(100,100,100); fill: none" />
<path d="M 1697.8,698.9 Q 1023.1,923.4 584.3,363.8" style="stroke-width: 2.0; stroke: rgb(100,100,100); fill: none" />
<path d="M 1691.1,683.7 Q 1079.7,993.3 1734.3,1196.0" style="stroke-width: 2.0; stroke: rgb(100,100,100); fill: none" />
<path d="M 1693.5,689.1 Q 1041.9,931.9 965.2,240.8" style="stroke-width: 2.0; stroke: rgb(100,100,100); fill: none" />
<path d="M 1697.6,698.3 Q 1023.0,923.4 584.3,363.8" style="stroke-width: 2.0; stroke: rgb(100,100,100); fill: none" />
<path d="M 1434.9,376.7 Q 934.9,953.5 552.3,1614.2" style="stroke-width: 2.0; stroke: rgb(100,100,100); fill: none" />
<path d="M 1694.4,691.1 Q 995.8,920.1 277.3,764.7" style="stroke-width: 2.0; stroke: rgb(100,100,100); fill: none" />
<path d="M 1692.2,686.2 Q 995.5,920.1 276.9,765.9" style="stroke-width: 2.0; stroke: rgb(100,100,100); fill: none" />
<path d="M 1429.6,373.1 Q 1072.4,965.9 1756.9,1068.8" style="stroke-width: 2.0; stroke: rgb(100,100,100); fill: none" />
<path d="M 1432.5,375.1 Q 1079.0,987.3 1606.9,1457.4" style="stroke-width: 2.0; stroke: rgb(100,100,100); fill: none" />
<path d="M 1428.8,372.5 Q 1025.9,924.3 1045.1,241.3" style="stroke-width: 2.0; stroke: rgb(100,100,100); fill: none" />
<path d="M 1433.2,375.6 Q 934.8,953.6 551.8,1613.8" style="stroke-width: 2.0; stroke: rgb(100,100,100); fill: none" />
<path d="M 1689.8,681.0 Q 1041.6,931.7 967.7,240.7" style="stroke-width: 2.0; stroke: rgb(100,100,100); fill: none" />
<path d="M 1692.3,686.4 Q 1046.5,1065.1 479.6,1553.8" style="stroke-width: 2.0; stroke: rgb(100,100,100); fill: none" />
<path d="M 1693.0,688.0 Q 995.6,920.1 277.2,765.2" style="stroke-width: 2.0; stroke: rgb(100,100,100); fill: none" />
<path d="M 1691.1,683.7 Q 1079.7,993.3 1734.3,1196.0" style="stroke-width: 2.0; stroke: rgb(100,100,100); fill: none" />
<path d="M 1697.7,698.6 Q 1023.0,923.4 584.3,363.8" style="stroke-width: 2.0; stroke: rgb(100,100,100); fill: none" />
<path d="M 1691.3,684.2 Q 1079.7,993.3 1734.3,1196.0" style="stroke-width: 2.0; stroke: rgb(100,100,100); fill: none" />
<path d="M 1690.3,682.0 Q 995.4,920.1 277.9,763.0" style="stroke-width: 2.0; stroke: rgb(100,100,100); fill: none" />
<path d="M 1432.5,375.1 Q 1079.0,987.3 1606.9,1457.4" style="stroke-width: 2.0; stroke: rgb(100,100,100); fill: none" />
<path d="M 1692.0,685.8 Q 1029.3,925.6 708.2,298.2" style="stroke-width: 2.0; stroke: rgb(100,100,100); fill: none" />
<path d="M 1697.8,698.9 Q 1023.1,923.4 584.3,363.8" style="stroke-width: 2.0; stroke: rgb(100,100,100); fill: none" />
<path d="M 1396.8,351.8 Q 935.1,953.2 509.4,1580.5" style="stroke-width: 2.0; stroke: rgb(100,100,100); fill: none" />
<path d="M 1694.5,691.3 Q 995.9,920.1 277.3,764.7" style="stroke-width: 2.0; stroke: rgb(100,100,100); fill: none" />
<path d="M 1692.4,686.7 Q 1060.8,1052.0 797.0,1732.4" style="stroke-width: 2.0; stroke: rgb(100,100,100); fill: none" />
<path d="M 1399.5,353.5 Q 963.5,928.8 241.8,947.3" style="stroke-width: 2.0; stroke: rgb(100,100,100); fill: none" />
<path d="M 1693.5,689.1 Q 1041.9,931.9 965.2,240.8" style="stroke-width: 2.0; stroke: rgb(100,100,100); fill: none" />
<path d="M 1693.2,688.3 Q 1046.4,1065.2 479.1,1553.4" style="stroke-width: 2.0; stroke: rgb(100,100,100); fill: none" />
<path d="M 1401.6,354.8 Q 936.6,951.2 478.3,1552.7" style="stroke-width: 2.0; stroke: rgb(100,100,100); fill: none" />
<path d="M 1400.9,354.4 Q 963.5,928.8 241.8,948.2" style="stroke-width: 2.0; stroke: rgb(100,100,100); fill: none" />
<path d="M 1692.2,686.2 Q 995.5,920.1 276.9,765.9" style="stroke-width: 2.0; stroke: rgb(100,100,100); fill: none" />
<path d="M 1691.2,684.0 Q 1079.7,993.3 1734.3,1196.0" style="stroke-width: 2.0; stroke: rgb(100,100,100); fill: none" />
<path d="M 1697.0,697.0 Q 996.3,920.1 277.8,763.4" style="stroke-width: 2.0; stroke: rgb(100,100,100); fill: none" />
<path d="M 1429.0,372.6 Q 1079.0,987.1 1606.4,1458.1" style="stroke-width: 2.0; stroke: rgb(100,100,100); fill: none" />
<path d="M 1691.8,685.3 Q 1050.0,1062.4 541.9,1606.4" style="stroke-width: 2.0; stroke: rgb(100,100,100); fill: none" />
<path d="M 1400.2,353.9 Q 1078.6,985.0 1609.6,1453.8" style="stroke-width: 2.0; stroke: rgb(100,100,100); fill: none" />
<path d="M 1397.1,352.0 Q 1073.4,1031.9 797.0,1732.4" style="stroke-width: 2.0; stroke: rgb(100,100,100); fill: none" />
<path d="M 1694.7,691.9 Q 1042.1,932.0 965.9,240.8" style="stroke-width: 2.0; stroke: rgb(100,100,100); fill: none" />
<path d="M 1697.6,698.4 Q 1023.0,923.4 584.3,363.8" style="stroke-width: 2.0; stroke: rgb(100,100,100); fill: none" />
<path d="M 1430.9,374.0 Q 1072.4,966.0 1756.9,1068.7" style="stroke-width: 2.0; stroke: rgb(100,100,100); fill: none" />
<path d="M 1429.0,372.6 Q 1079.0,987.1 1606.4,1458.1" style="stroke-width: 2.0; stroke: rgb(100,100,100); fill: none" />
<path d="M 1401.6,354.8 Q 936.6,951.2 478.3,1552.7" style="stroke-width: 2.0; stroke: rgb(100,100,100); fill: none" />
<path d="M 1692.2,686.2 Q 995.5,920.1 276.9,765.9" style="stroke-width: 2.0; stroke: rgb(100,100,100); fill: none" />
<path d="M 1432.5,375.1 Q 1079.0,987.3 1606.9,1457.4" style="stroke-width: 2.0; stroke: rgb(100,100,100); fill: none" />
<path d="M 1432.5,375.1 Q 1079.0,987.3 1606.9,1457.4" style="stroke-width: 2.0; stroke: rgb(100,100,100); fill: none" />
<path d="M 1435.5,377.1 Q 934.9,953.5 552.7,1614.4" style="stroke-width: 2.0; stroke: rgb(100,100,100); fill: none" />
<path d="M 1697.7,698.6 Q 1023.0,923.4 584.3,363.8" style="stroke-width: 2.0; stroke: rgb(100,100,100); fill: none" />
<path d="M 1399.0,353.2 Q 951.8,936.2 268.8,1207.3" style="stroke-width: 2.0; stroke: rgb(100,100,100); fill: none" />
<path d="M 1692.3,686.5 Q 1030.8,926.2 735.7,287.4" style="stroke-width: 2.0; stroke: rgb(100,100,100); fill: none" />
<path d="M 1691.1,683.8 Q 1080.0,998.5 1702.6,1289.8" style="stroke-width: 2.0; stroke: rgb(100,100,100); fill: none" />
<path d="M 1691.9,685.6 Q 1029.3,925.6 708.2,298.2" style="stroke-width: 2.0; stroke: rgb(100,100,100); fill: none" />
<path d="M 1697.7,698.7 Q 1023.0,923.4 584.3,363.8" style="stroke-width: 2.0; stroke: rgb(100,100,100); fill: none" />
<path d="M 1435.3,377.0 Q 1010.1,920.6 735.3,287.6" style="stroke-width: 2.0; stroke: rgb(100,100,100); fill: none" />
<path d="M 1434.6,376.5 Q 1072.5,966.2 1756.9,1068.4" style="stroke-width: 2.0; stroke: rgb(100,100,100); fill: none" />
<path d="M 1429.6,373.1 Q 1072.4,965.9 1756.9,1068.8" style="stroke-width: 2.0; stroke: rgb(100,100,100); fill: none" />
<path d="M 1397.3,352.1 Q 1007.8,920.4 735.9,287.4" style="stroke-width: 2.0; stroke: rgb(100,100,100); fill: none" />
<path d="M 1433.3,375.6 Q 934.8,953.6 551.9,1613.8" style="stroke-width: 2.0; stroke: rgb(100,100,100); fill: none" />
<path d="M 1429.3,372.8 Q 1009.4,920.6 728.6,290.1" style="stroke-width: 2.0; stroke: rgb(100,100,100); fill: none" />
<path d="M 1694.5,691.3 Q 995.9,920.1 277.3,764.7" style="stroke-width: 2.0; stroke: rgb(100,100,100); fill: none" />
<path d="M 1698.5,700.4 Q 1043.9,1066.8 448.1,1522.5" style="stroke-width: 2.0; stroke: rgb(100,100,100); fill: none" />
<path d="M 1692.1,686.0 Q 995.5,920.1 276.9,766.0" style="stroke-width: 2.0; stroke: rgb(100,100,100); fill: none" />
<path d="M 1401.6,354.8 Q 936.6,951.2 478.3,1552.7" style="stroke-width: 2.0; stroke: rgb(100,100,100); fill: none" />
<path d="M 1693.3,688.7 Q 1046.4,1065.2 479.0,1553.3" style="stroke-width: 2.0; stroke: rgb(100,100,100); fill: none" />
</g>
</svg>
